<?xml version="1.0" encoding="UTF-8"?>
<svg width="136px" height="41px" viewBox="0 0 136 41" version="1.1" xmlns="http://www.w3.org/2000/svg" xmlns:xlink="http://www.w3.org/1999/xlink">
    <!-- Generator: Sketch 50.2 (55047) - http://www.bohemiancoding.com/sketch -->
    <title>BTN-Apple</title>
    <desc>Created with Sketch.</desc>
    <defs></defs>
    <g id="Page-1" stroke="none" stroke-width="1" fill="none" fill-rule="evenodd">
        <g id="Mini-push" transform="translate(-472.000000, -1130.000000)">
            <g id="BTN-Apple" transform="translate(472.911032, 1130.511175)">
                <rect id="Rectangle-2" fill="#000000" x="0" y="0" width="135" height="40" rx="5"></rect>
                <g id="_Group_" transform="translate(14.000000, 8.000000)" fill="#FFFFFF" fill-rule="nonzero">
                    <g id="_Group_2">
                        <g id="_Group_3">
                            <path d="M15.77,12.3 C15.7897434,10.6026212 16.6813319,9.03478552 18.13,8.15 C17.2111796,6.84030508 15.7290732,6.03996762 14.13,5.99 C12.45,5.81 10.82,6.99 9.96,6.99 C9.1,6.99 7.77,5.99 6.36,5.99 C4.49001204,6.04724259 2.78813138,7.08432611 1.88,8.72 C-1.11022302e-16,12.11 1.4,17 3.25,19.74 C4.18,21.07 5.25,22.55 6.68,22.49 C8.11,22.43 8.59,21.61 10.26,21.61 C11.93,21.61 12.41,22.49 13.85,22.46 C15.29,22.43 16.28,21.13 17.17,19.79 C17.837931,18.8474843 18.351059,17.804349 18.69,16.7 C16.9213176,15.9528857 15.7713143,14.220004 15.77,12.3 Z" id="_Path_"></path>
                            <path d="M13,4.21 C13.8109302,3.23591368 14.2092409,1.98356766 14.11,0.72 C12.9038774,0.870190608 11.7960359,1.4615144 11,2.38 C10.1813631,3.30032953 9.7669742,4.51106566 9.85,5.74 C11.0756127,5.72521729 12.2306704,5.16418927 13,4.21 Z" id="_Path_2"></path>
                        </g>
                    </g>
                </g>
                <g id="_Group_4" transform="translate(38.000000, 7.000000)" fill="#FFFFFF" fill-rule="nonzero">
                    <polygon id="Shape" points="2.66 7.7 2.66 2.58 0.78 2.58 0.78 1.73 5.46 1.73 5.46 2.58 3.58 2.58 3.58 7.7"></polygon>
                    <path d="M9.76,6.49 C9.51260107,7.3398615 8.68964097,7.88850156 7.81,7.79 C7.26246279,7.81741158 6.72767712,7.61886229 6.33068809,7.2407775 C5.93369906,6.86269272 5.70931427,6.33822251 5.71,5.79 C5.71,5.68 5.71,5.56 5.71,5.45 C5.56225489,4.31266225 6.36300331,3.27034727 7.5,3.12 L7.79,3.12 C9.04,3.12 9.79,3.98 9.79,5.39 L9.79,5.7 L6.64,5.7 L6.64,5.75 C6.60506083,6.38937444 7.08232534,6.94176391 7.72,7 L7.84,7 C8.27298615,7.05257812 8.69509724,6.83955008 8.91,6.46 L9.76,6.49 Z M6.64,5 L8.91,5 C8.93202162,4.71338406 8.83887099,4.4298148 8.65117652,4.21208921 C8.46348205,3.99436362 8.19673245,3.86044863 7.91,3.84 L7.8,3.84 C7.49153082,3.83730579 7.19491231,3.95865437 6.97678334,4.17678334 C6.75865437,4.39491231 6.63730579,4.69153082 6.64,5 Z M7.28,2.42 L8.28,0.99 L9.28,0.99 L8.19,2.45 L7.28,2.42 Z" id="Shape"></path>
                    <polygon id="Shape" points="11.05 1.44 11.94 1.44 11.94 7.7 11.05 7.7"></polygon>
                    <path d="M17.21,6.49 C16.9561313,7.35798678 16.1063037,7.91037474 15.21,7.79 C14.6624628,7.81741158 14.1276771,7.61886229 13.7306881,7.2407775 C13.3336991,6.86269272 13.1093143,6.33822251 13.11,5.79 C13.1000496,5.67688507 13.1000496,5.56311493 13.11,5.45 C13.0399712,4.8892341 13.2022535,4.32421681 13.5591835,3.88608052 C13.9161135,3.44794424 14.4366558,3.17478531 15,3.13 L15.29,3.13 C16.55,3.13 17.29,3.99 17.29,5.4 L17.29,5.71 L14.08,5.71 L14.08,5.76 C14.0560973,6.3973113 14.5348847,6.94198681 15.17,7 L15.28,7 C15.7134732,7.055387 16.1370675,6.84161045 16.35,6.46 L17.21,6.49 Z M14.08,5 L16.36,5 C16.3947878,4.40667297 15.9519771,3.89301249 15.36,3.84 L15.26,3.84 C14.9480942,3.83184781 14.6462635,3.95078199 14.4237599,4.16951436 C14.2012563,4.38824673 14.0771803,4.68800038 14.08,5 Z M14.72,2.42 L15.72,0.99 L16.72,0.99 L15.64,2.45 L14.72,2.42 Z" id="Shape"></path>
                    <path d="M21.4,4.67 C21.283229,4.18939218 20.8326595,3.86634234 20.34,3.91 C19.6,3.91 19.14,4.48 19.14,5.44 C19.14,6.4 19.6,7 20.34,7 C20.8267097,7.04557404 21.275031,6.73259505 21.4,6.26 L22.27,6.26 C22.1500346,7.21138307 21.2942772,7.89421548 20.34,7.8 C19.2003704,7.83368252 18.2480574,6.93949186 18.21,5.8 C18.21,5.68 18.21,5.56 18.21,5.45 C18.1338716,4.85050745 18.3235151,4.24768184 18.729154,3.79974886 C19.1347928,3.35181588 19.7159182,3.10350821 20.32,3.12 C21.2795263,3.03190701 22.1349435,3.7233323 22.25,4.68 L21.4,4.67 Z" id="Shape"></path>
                    <path d="M23.45,1.44 L24.33,1.44 L24.33,3.92 L24.4,3.92 C24.6401003,3.38915032 25.1896819,3.06822671 25.77,3.12 C26.1633368,3.09545997 26.5500547,3.22988698 26.8433617,3.49311123 C27.1366687,3.75633548 27.311998,4.12630984 27.33,4.52 C27.3399897,4.60972279 27.3399897,4.70027721 27.33,4.79 L27.33,7.7 L26.44,7.7 L26.44,5 C26.44,4.28 26.11,3.92 25.44,3.92 C25.1530893,3.88237178 24.8639458,3.97087041 24.6472471,4.16263921 C24.4305483,4.35440801 24.3075431,4.63064282 24.31,4.92 C24.2999296,4.97957744 24.2999296,5.04042256 24.31,5.1 L24.31,7.7 L23.42,7.7 L23.45,1.44 Z" id="Shape"></path>
                    <path d="M28.44,6.43 C28.44,5.62 29.04,5.15 30.11,5.08 L31.33,5 L31.33,4.61 C31.33,4.14 31.02,3.87 30.41,3.87 C29.8,3.87 29.57,4.05 29.47,4.37 L28.61,4.37 C28.7,3.6 29.43,3.1 30.45,3.1 C31.47,3.1 32.22,3.66 32.22,4.61 L32.22,7.7 L31.36,7.7 L31.36,7.07 L31.29,7.07 C30.9999127,7.53166669 30.4847718,7.80259262 29.94,7.78 C29.5805383,7.81626992 29.2214174,7.70802047 28.9418804,7.47913783 C28.6623434,7.25025519 28.4853661,6.91955172 28.45,6.56 C28.4417052,6.51719181 28.4383499,6.47357318 28.44,6.43 Z M31.33,6 L31.33,5.63 L30.23,5.7 C29.61,5.7 29.33,5.95 29.33,6.35 C29.33,6.75 29.68,6.99 30.17,6.99 C30.449815,7.01790547 30.7292516,6.9334824 30.9468072,6.7553119 C31.1643627,6.57714141 31.3022066,6.31982615 31.33,6.04 L31.33,6 Z" id="Shape"></path>
                    <path d="M33.61,3.2 L34.47,3.2 L34.47,3.89 L34.53,3.89 C34.7301435,3.39883471 35.2205089,3.08934182 35.75,3.12 C35.8795796,3.10521396 36.0104204,3.10521396 36.14,3.12 L36.14,4 C35.9788138,3.96524314 35.8148102,3.94516105 35.65,3.94 C35.3637821,3.91520562 35.0797584,4.00764961 34.8629679,4.19616309 C34.6461774,4.38467657 34.5151898,4.65311201 34.5,4.94 L34.5,7.7 L33.61,7.7 L33.61,3.2 Z" id="Shape"></path>
                    <path d="M37,8.15 L37.91,8.15 C37.99,8.48 38.36,8.69 38.91,8.69 C39.46,8.69 40.09,8.34 40.09,7.74 L40.09,6.88 L40,6.88 C39.7124832,7.37049827 39.1781023,7.66267775 38.61,7.64 C37.46,7.64 36.75,6.75 36.75,5.4 C36.75,4.05 37.47,3.12 38.62,3.12 C39.2055187,3.10085125 39.7529943,3.40928823 40.04,3.92 L40.11,3.92 L40.11,3.2 L41,3.2 L41,7.74 C41,8.74 40.19,9.42 38.92,9.42 C37.65,9.42 37.06,8.92 37,8.15 Z M40.16,5.39 C40.16,4.5 39.69,3.92 38.94,3.92 C38.19,3.92 37.74,4.5 37.74,5.39 C37.74,6.28 38.17,6.87 38.94,6.87 C39.71,6.87 40.16,6.3 40.16,5.39 Z" id="Shape"></path>
                    <path d="M46.21,6.49 C45.9591222,7.33730267 45.138617,7.88430615 44.26,7.79 C43.7124628,7.81741158 43.1776771,7.61886229 42.7806881,7.2407775 C42.3836991,6.86269272 42.1593143,6.33822251 42.16,5.79 C42.16,5.68 42.16,5.56 42.16,5.45 C42.092539,4.89765441 42.2492074,4.34130825 42.5949825,3.90533094 C42.9407576,3.46935363 43.4468052,3.19010133 44,3.13 L44.3,3.13 C45.55,3.13 46.3,3.99 46.3,5.4 L46.3,5.71 L43.09,5.71 L43.09,5.76 C43.0606044,6.39559378 43.5363883,6.94186423 44.17,7 L44.29,7 C44.7225028,7.04984128 45.1431827,6.83753556 45.36,6.46 L46.21,6.49 Z M43.09,5 L45.36,5 C45.3820216,4.71338406 45.288871,4.4298148 45.1011765,4.21208921 C44.913482,3.99436362 44.6467325,3.86044863 44.36,3.84 L44.25,3.84 C43.9407028,3.83452442 43.6424601,3.95497923 43.4237197,4.17371967 C43.2049792,4.39246011 43.0845244,4.69070276 43.09,5 Z" id="Shape"></path>
                    <path d="M47.46,3.2 L48.32,3.2 L48.32,3.89 L48.38,3.89 C48.5801435,3.39883471 49.0705089,3.08934182 49.6,3.12 C49.7295796,3.10521396 49.8604204,3.10521396 49.99,3.12 L49.99,4 C49.8269969,3.98531225 49.6630031,3.98531225 49.5,4 C49.2137821,3.97520562 48.9297584,4.06764961 48.7129679,4.25616309 C48.4961774,4.44467657 48.3651898,4.71311201 48.35,5 L48.35,7.7 L47.46,7.7 L47.46,3.2 Z" id="Shape"></path>
                    <path d="M53.2,5.45 C53.2,4.03 53.93,3.12 55.06,3.12 C55.6355893,3.09870293 56.1737704,3.40457561 56.45,3.91 L56.51,3.91 L56.51,1.44 L57.4,1.44 L57.4,7.7 L56.55,7.7 L56.55,7 L56.48,7 C56.1887267,7.50520742 55.642853,7.80889772 55.06,7.79 C53.92,7.78 53.2,6.87 53.2,5.45 Z M54.11,5.45 C54.11,6.45 54.56,6.98 55.32,6.98 C56.08,6.98 56.53,6.4 56.53,5.45 C56.53,4.5 56.06,3.92 55.32,3.92 C54.58,3.92 54.11,4.5 54.11,5.45 Z" id="Shape"></path>
                    <path d="M58.6,6.43 C58.6,5.62 59.21,5.15 60.28,5.08 L61.5,5 L61.5,4.61 C61.5,4.14 61.18,3.87 60.57,3.87 C59.96,3.87 59.73,4.05 59.64,4.37 L58.78,4.37 C58.87,3.6 59.59,3.1 60.62,3.1 C61.65,3.1 62.38,3.66 62.38,4.61 L62.38,7.7 L61.53,7.7 L61.53,7.07 L61.46,7.07 C61.1652073,7.5317036 60.6473449,7.80205825 60.1,7.78 C59.3530791,7.84986747 58.6888761,7.30602337 58.61,6.56 C58.6017052,6.51719181 58.5983499,6.47357318 58.6,6.43 Z M61.5,6 L61.5,5.63 L60.4,5.7 C59.78,5.7 59.5,5.95 59.5,6.35 C59.5,6.75 59.85,6.99 60.33,6.99 C60.609815,7.01790547 60.8892516,6.9334824 61.1068072,6.7553119 C61.3243627,6.57714141 61.4622066,6.31982615 61.49,6.04 L61.5,6 Z" id="Shape"></path>
                    <path d="M63.77,3.2 L64.63,3.2 L64.63,3.91 L64.69,3.91 C64.9298398,3.38853194 65.4674186,3.06996671 66.04,3.11 C66.8452463,3.05255277 67.5461451,3.65523645 67.61,4.46 C67.6199931,4.56977304 67.6199931,4.68022696 67.61,4.79 L67.61,7.7 L66.72,7.7 L66.72,5 C66.72,4.28 66.4,3.92 65.72,3.92 C65.4412176,3.89762425 65.1658043,3.99301764 64.9605868,4.18303378 C64.7553694,4.37304991 64.6391035,4.64032247 64.64,4.92 C64.635028,4.97321745 64.635028,5.02678255 64.64,5.08 L64.64,7.7 L63.75,7.7 L63.77,3.2 Z" id="Shape"></path>
                    <path d="M70.62,3.11 C71.62,3.11 72.29,3.58 72.38,4.38 L71.53,4.38 C71.44,4.05 71.12,3.84 70.62,3.84 C70.12,3.84 69.74,4.07 69.74,4.42 C69.74,4.77 69.97,4.86 70.46,4.97 L71.21,5.15 C72.06,5.34 72.47,5.71 72.47,6.37 C72.47,7.22 71.68,7.79 70.6,7.79 C69.52,7.79 68.83,7.3 68.75,6.51 L69.64,6.51 C69.7991445,6.90949952 70.2162209,7.14306226 70.64,7.07 C71.2,7.07 71.59,6.82 71.59,6.46 C71.59,6.1 71.38,6.02 70.93,5.91 L70.14,5.73 C69.29,5.53 68.89,5.14 68.89,4.47 C68.89,3.8 69.6,3.11 70.62,3.11 Z" id="Shape"></path>
                </g>
                <polygon id="Shape" fill="#FFFFFF" fill-rule="nonzero" points="40.2 18.07 42.06 18.07 42.06 30.49 40.2 30.49"></polygon>
                <polygon id="Shape" fill="#FFFFFF" fill-rule="nonzero" points="44.3 22.61 45.3 18.07 47.11 18.07 45.88 22.61"></polygon>
                <path d="M54.15,27.13 L49.41,27.13 L48.28,30.49 L46.28,30.49 L50.76,18.07 L52.85,18.07 L57.33,30.49 L55.33,30.49 L54.15,27.13 Z M49.9,25.58 L53.66,25.58 L51.81,20.13 L51.75,20.13 L49.9,25.58 Z" id="Shape" fill="#FFFFFF" fill-rule="nonzero"></path>
                <path d="M67,26 C67,28.81 65.5,30.62 63.22,30.62 C62.039412,30.6758788 60.9328196,30.0446535 60.38,29 L60.33,29 L60.33,33.48 L58.47,33.48 L58.47,21.48 L60.27,21.48 L60.27,22.99 C60.8589896,21.9638364 61.9675646,21.3479613 63.15,21.39 C65.49,21.34 67,23.15 67,26 Z M65.09,26 C65.09,24.17 64.15,23 62.7,23 C61.25,23 60.33,24.23 60.33,26 C60.33,27.77 61.33,29 62.7,29 C64.07,29 65.09,27.81 65.09,26 Z" id="Shape" fill="#FFFFFF" fill-rule="nonzero"></path>
                <path d="M77,26 C77,28.81 75.49,30.62 73.22,30.62 C72.0264762,30.6867568 70.9027321,30.0546507 70.34,29 L70.34,33.48 L68.44,33.48 L68.44,21.48 L70.24,21.48 L70.24,22.99 C70.8289896,21.9638364 71.9375646,21.3479613 73.12,21.39 C75.45,21.34 77,23.15 77,26 Z M75.09,26 C75.09,24.17 74.09,23 72.69,23 C71.29,23 70.32,24.23 70.32,26 C70.32,27.77 71.27,29 72.69,29 C74.11,29 75.06,27.81 75.06,26 L75.09,26 Z" id="Shape" fill="#FFFFFF" fill-rule="nonzero"></path>
                <path d="M83.55,27 C83.69,28.23 84.89,29 86.55,29 C88.21,29 89.25,28.19 89.25,27.08 C89.25,25.97 88.57,25.54 86.96,25.14 L85.35,24.75 C83,24.27 82,23.2 82,21.47 C82,19.33 83.87,17.86 86.52,17.86 C89.17,17.86 90.94,19.33 91,21.47 L89.1,21.47 C88.99,20.23 87.97,19.47 86.47,19.47 C84.97,19.47 84,20.24 84,21.35 C84,22.22 84.65,22.74 86.25,23.14 L87.62,23.47 C90.17,24.07 91.23,25.1 91.23,26.91 C91.23,29.24 89.38,30.69 86.43,30.69 C83.68,30.69 81.82,29.27 81.7,27.03 L83.55,27 Z" id="Shape" fill="#FFFFFF" fill-rule="nonzero"></path>
                <path d="M95.19,19.29 L95.19,21.43 L96.91,21.43 L96.91,22.9 L95.19,22.9 L95.19,27.9 C95.19,28.68 95.53,29.04 96.29,29.04 C96.4932018,29.0503428 96.6967982,29.0503428 96.9,29.04 L96.9,30.5 C96.5698359,30.558408 96.2352874,30.5885174 95.9,30.59 C94.07,30.59 93.35,29.9 93.35,28.14 L93.35,22.9 L92,22.9 L92,21.43 L93.31,21.43 L93.31,19.29 L95.19,19.29 Z" id="Shape" fill="#FFFFFF" fill-rule="nonzero"></path>
                <path d="M97.91,26 C97.91,23.15 99.59,21.36 102.2,21.36 C104.81,21.36 106.5,23.15 106.5,26 C106.5,28.85 104.84,30.64 102.2,30.64 C99.56,30.64 97.91,28.82 97.91,26 Z M104.6,26 C104.6,24 103.71,22.89 102.2,22.89 C100.69,22.89 99.8,24 99.8,26 C99.8,28 100.7,29.11 102.2,29.11 C103.7,29.11 104.6,27.96 104.6,26 Z" id="Shape" fill="#FFFFFF" fill-rule="nonzero"></path>
                <path d="M108,21.43 L109.77,21.43 L109.77,23 C110.011171,21.9782776 110.952038,21.2779011 112,21.34 C112.215348,21.3380084 112.430174,21.3615051 112.64,21.41 L112.64,23.14 C112.367821,23.0580077 112.084113,23.0208554 111.8,23.03 C111.303952,23.0110833 110.820737,23.1901767 110.456838,23.5278147 C110.09294,23.8654527 109.878222,24.3339257 109.86,24.83 C109.850173,24.9264169 109.850173,25.0235831 109.86,25.12 L109.86,30.49 L108,30.49 L108,21.43 Z" id="Shape" fill="#FFFFFF" fill-rule="nonzero"></path>
                <path d="M121.23,27.83 C120.98,29.47 119.38,30.6 117.33,30.6 C114.69,30.6 113.06,28.83 113.06,26 C113.06,23.17 114.7,21.32 117.25,21.32 C119.8,21.32 121.33,23.04 121.33,25.79 L121.33,26.42 L114.94,26.42 L114.94,26.54 C114.884558,27.1621611 115.079088,27.7807972 115.480623,28.2592616 C115.882158,28.7377259 116.457656,29.0366477 117.08,29.09 L117.37,29.09 C118.270548,29.1740759 119.119779,28.6580362 119.46,27.82 L121.23,27.83 Z M114.94,25.12 L119.47,25.12 C119.538891,23.9391511 118.649377,22.9206584 117.47,22.83 L117.3,22.83 C116.692647,22.8246724 116.108056,23.060845 115.674842,23.4865575 C115.241628,23.9122701 114.995281,24.4926469 114.99,25.1 L114.94,25.12 Z" id="Shape" fill="#FFFFFF" fill-rule="nonzero"></path>
            </g>
        </g>
    </g>
</svg>