<?xml version="1.0" encoding="UTF-8"?>
<svg width="136px" height="41px" viewBox="0 0 136 41" version="1.1" xmlns="http://www.w3.org/2000/svg" xmlns:xlink="http://www.w3.org/1999/xlink">
    <!-- Generator: Sketch 50.2 (55047) - http://www.bohemiancoding.com/sketch -->
    <title>BTN-Google play</title>
    <desc>Created with Sketch.</desc>
    <defs>
        <linearGradient x1="91.4954814%" y1="4.94615078%" x2="-38.2370848%" y2="71.8787395%" id="linearGradient-1">
            <stop stop-color="#00A0FF" offset="0%"></stop>
            <stop stop-color="#00A1FF" offset="1%"></stop>
            <stop stop-color="#00BEFF" offset="26%"></stop>
            <stop stop-color="#00D2FF" offset="51%"></stop>
            <stop stop-color="#00DFFF" offset="76%"></stop>
            <stop stop-color="#00E3FF" offset="100%"></stop>
        </linearGradient>
        <linearGradient x1="107.684729%" y1="50%" x2="-130.640394%" y2="50%" id="linearGradient-2">
            <stop stop-color="#FFE000" offset="0%"></stop>
            <stop stop-color="#FFBD00" offset="41%"></stop>
            <stop stop-color="#FFA500" offset="78%"></stop>
            <stop stop-color="#FF9C00" offset="100%"></stop>
        </linearGradient>
        <linearGradient x1="86.2709832%" y1="17.871098%" x2="-50.1798561%" y2="194.639567%" id="linearGradient-3">
            <stop stop-color="#FF3A44" offset="0%"></stop>
            <stop stop-color="#C31162" offset="100%"></stop>
        </linearGradient>
        <linearGradient x1="-18.82494%" y1="-54.0297086%" x2="42.0863309%" y2="24.9280028%" id="linearGradient-4">
            <stop stop-color="#32A071" offset="0%"></stop>
            <stop stop-color="#2DA771" offset="7%"></stop>
            <stop stop-color="#15CF74" offset="48%"></stop>
            <stop stop-color="#06E775" offset="80%"></stop>
            <stop stop-color="#00F076" offset="100%"></stop>
        </linearGradient>
    </defs>
    <g id="Page-1" stroke="none" stroke-width="1" fill="none" fill-rule="evenodd">
        <g id="Mini-push" transform="translate(-472.000000, -1180.000000)" fill-rule="nonzero">
            <g id="BTN-Google-play" transform="translate(472.911032, 1180.511175)">
                <rect id="Rectangle-path" fill="#000000" x="0" y="0" width="135" height="40" rx="7"></rect>
                <path d="M130,0.8 C132.319596,0.8 134.2,2.68040405 134.2,5 L134.2,35 C134.2,37.3195959 132.319596,39.2 130,39.2 L5,39.2 C2.68040405,39.2 0.8,37.3195959 0.8,35 L0.8,5 C0.8,2.68040405 2.68040405,0.8 5,0.8 L130,0.8 Z M130,0 L5,0 C2.23857625,1.77635684e-15 0,2.23857625 0,5 L0,35 C0,37.7614237 2.23857625,40 5,40 L130,40 C132.761424,40 135,37.7614237 135,35 L135,5 C135,2.23857625 132.761424,1.77635684e-15 130,0 Z" id="Shape" fill="#000000"></path>
                <path d="M68.14,21.75 C65.7872765,21.7555293 63.8844985,23.6672686 63.8900235,26.0199921 C63.8955484,28.3727156 65.8072843,30.2754972 68.1600078,30.2699765 C70.5127313,30.2644558 72.4155163,28.3527235 72.41,26 C72.426473,24.8643738 71.9812316,23.7707097 71.1762551,22.9695037 C70.3712787,22.1682976 69.2755364,21.7281956 68.14,21.75 Z M68.14,28.58 C67.0832273,28.6539053 66.088673,28.0743135 65.6320213,27.1184371 C65.1753697,26.1625607 65.3494358,25.0246828 66.0709659,24.249038 C66.7924959,23.4733932 67.9148379,23.2176324 68.9011878,23.6040831 C69.8875378,23.9905338 70.5374189,24.9406494 70.54,26 C70.5725428,26.6626719 70.3360327,27.3103928 69.8841403,27.7961771 C69.432248,28.2819613 68.8032921,28.5646164 68.14,28.58 Z M58.82,21.75 C56.4672765,21.7555293 54.5644985,23.6672686 54.5700235,26.0199921 C54.5755484,28.3727156 56.4872843,30.2754972 58.8400078,30.2699765 C61.1927313,30.2644558 63.0955163,28.3527235 63.09,26 C63.106473,24.8643738 62.6612316,23.7707097 61.8562551,22.9695037 C61.0512787,22.1682976 59.9555364,21.7281956 58.82,21.75 Z M58.82,28.58 C57.7632273,28.6539053 56.768673,28.0743135 56.3120213,27.1184371 C55.8553697,26.1625607 56.0294358,25.0246828 56.7509659,24.249038 C57.4724959,23.4733932 58.5948379,23.2176324 59.5811878,23.6040831 C60.5675378,23.9905338 61.2174189,24.9406494 61.22,26 C61.2525428,26.6626719 61.0160327,27.3103928 60.5641403,27.7961771 C60.112248,28.2819613 59.4832921,28.5646164 58.82,28.58 Z M47.74,23.06 L47.74,24.86 L52.06,24.86 C51.9922634,25.7078038 51.6398446,26.5077945 51.06,27.13 C50.1836518,28.0228625 48.9699725,28.5025202 47.72,28.45 C45.0690332,28.45 42.92,26.3009668 42.92,23.65 C42.92,20.9990332 45.0690332,18.85 47.72,18.85 C48.9404476,18.8318498 50.1188954,19.2953247 51,20.14 L52.27,18.87 C51.0659807,17.6791542 49.4332385,17.0231739 47.74,17.05 C45.3189608,16.955779 43.0403936,18.1936718 41.801854,20.2760571 C40.5633145,22.3584423 40.5633145,24.9515577 41.801854,27.0339429 C43.0403936,29.1163282 45.3189608,30.354221 47.74,30.26 C49.4701987,30.3291046 51.1475475,29.655982 52.35,28.41 C53.4001185,27.2564101 53.9596631,25.7391832 53.91,24.18 C53.9135793,23.8047255 53.8834584,23.4298875 53.82,23.06 L47.74,23.06 Z M93.05,24.46 C92.5160796,22.8892101 91.0679278,21.811053 89.41,21.75 C88.3043635,21.7478383 87.2471451,22.2034076 86.4893794,23.0085336 C85.7316138,23.8136596 85.3408955,24.8965231 85.41,26 C85.3924407,27.8748194 86.611123,29.5374987 88.4042599,30.0851449 C90.1973968,30.632791 92.1370825,29.9347165 93.17,28.37 L91.72,27.37 C91.280167,28.103094 90.4848748,28.5483054 89.63,28.54 C88.742835,28.5766297 87.9244125,28.0641224 87.57,27.25 L93.26,24.9 L93.05,24.46 Z M87.25,25.88 C87.2090571,25.2525116 87.4223869,24.634951 87.8419025,24.1665232 C88.2614182,23.6980954 88.8518111,23.4182257 89.48,23.39 C90.1387659,23.3497893 90.7574492,23.7083892 91.05,24.3 L87.25,25.88 Z M82.63,30 L84.5,30 L84.5,17.5 L82.63,17.5 L82.63,30 Z M79.57,22.7 L79.5,22.7 C78.9347066,22.0562073 78.116706,21.6910285 77.26,21.7 C74.9901469,21.8100717 73.2063371,23.6824796 73.2063371,25.955 C73.2063371,28.2275204 74.9901469,30.0999283 77.26,30.21 C78.1183976,30.2272187 78.9397171,29.8605582 79.5,29.21 L79.57,29.21 L79.57,29.82 C79.57,31.45 78.7,32.32 77.3,32.32 C76.3435146,32.2989876 75.4943492,31.702597 75.15,30.81 L73.53,31.48 C74.1431493,33.0199895 75.6425851,34.0222649 77.3,34 C79.49,34 81.3,32.71 81.3,29.57 L81.3,22 L79.57,22 L79.57,22.7 Z M77.42,28.58 C76.0600866,28.4952122 75.0005459,27.367554 75.0005459,26.005 C75.0005459,24.642446 76.0600866,23.5147878 77.42,23.43 C78.0670204,23.4579218 78.6750106,23.747221 79.1047995,24.231676 C79.5345883,24.7161309 79.7493771,25.3542625 79.7,26 C79.7551348,26.6480494 79.5426575,27.2904311 79.1119703,27.7777877 C78.6812831,28.2651443 78.0699104,28.5550138 77.42,28.58 Z M101.81,17.5 L97.33,17.5 L97.33,30 L99.2,30 L99.2,25.26 L101.81,25.26 C103.262684,25.3643638 104.651974,24.648509 105.41013,23.404973 C106.168286,22.161437 106.168286,20.598563 105.41013,19.355027 C104.651974,18.111491 103.262684,17.3956362 101.81,17.5 Z M101.81,23.5 L99.2,23.5 L99.2,19.24 L101.85,19.24 C102.614548,19.24 103.32102,19.6478817 103.703294,20.31 C104.085569,20.9721183 104.085569,21.7878817 103.703294,22.45 C103.32102,23.1121183 102.614548,23.52 101.85,23.52 L101.81,23.5 Z M113.35,21.71 C111.958089,21.6241747 110.648702,22.3752042 110.02,23.62 L111.67,24.31 C112.010603,23.695923 112.680401,23.3394806 113.38,23.4 C113.859528,23.3439946 114.341454,23.4829701 114.717528,23.7857102 C115.093603,24.0884503 115.332299,24.5295749 115.38,25.01 L115.38,25.13 C114.778663,24.8139168 114.109348,24.6491623 113.43,24.65 C111.65,24.65 109.83,25.65 109.83,27.47 C109.865569,28.2515813 110.216509,28.9853449 110.802624,29.5036142 C111.38874,30.0218835 112.159942,30.280368 112.94,30.22 C113.895412,30.2728479 114.805111,29.8065317 115.32,29 L115.38,29 L115.38,30 L117.18,30 L117.18,25.19 C117.18,23 115.52,21.73 113.39,21.73 L113.35,21.71 Z M113.12,28.56 C112.51,28.56 111.66,28.25 111.66,27.5 C111.66,26.5 112.72,26.16 113.66,26.16 C114.254042,26.1453419 114.841131,26.2903874 115.36,26.58 C115.230157,27.7031043 114.29036,28.5574651 113.16,28.58 L113.12,28.56 Z M123.74,22 L121.6,27.42 L121.54,27.42 L119.32,22 L117.32,22 L120.65,29.58 L118.75,33.79 L120.7,33.79 L125.82,22 L123.74,22 Z M106.94,30 L108.8,30 L108.8,17.5 L106.94,17.5 L106.94,30 Z" id="Shape" fill="#FFFFFF"></path>
                <path d="M10.44,7.54 C10.1104694,7.92961949 9.94232908,8.43046284 9.97,8.94 L9.97,31.06 C9.93597397,31.5703792 10.1048935,32.0735438 10.44,32.46 L10.51,32.54 L22.9,20.15 L22.9,19.85 L10.51,7.47 L10.44,7.54 Z" id="Shape" fill="url(#linearGradient-1)"></path>
                <path d="M27,24.28 L22.9,20.15 L22.9,19.85 L27,15.72 L27.09,15.78 L32,18.56 C33.4,19.35 33.4,20.65 32,21.45 L27.11,24.23 L27,24.28 Z" id="Shape" fill="url(#linearGradient-2)"></path>
                <path d="M27.12,24.22 L22.9,20 L10.44,32.46 C11.0230326,32.9789708 11.89324,33.0083981 12.51,32.53 L27.12,24.22" id="Shape" fill="url(#linearGradient-3)"></path>
                <path d="M27.12,15.78 L12.51,7.48 C11.8969646,6.9947215 11.0238977,7.02002779 10.44,7.54 L22.9,20 L27.12,15.78 Z" id="Shape" fill="url(#linearGradient-4)"></path>
                <path d="M27,24.13 L12.51,32.38 C11.9181542,32.8266792 11.1018458,32.8266792 10.51,32.38 L10.44,32.45 L10.51,32.53 C11.1018458,32.9766792 11.9181542,32.9766792 12.51,32.53 L27.12,24.22 L27,24.13 Z" id="Shape" fill="#000000" opacity="0.2"></path>
                <path d="M10.44,32.32 C10.1187941,31.9233599 9.96138192,31.4189256 10,30.91 L10,31.06 C9.96597397,31.5703792 10.1348935,32.0735438 10.47,32.46 L10.54,32.39 L10.44,32.32 Z" id="Shape" fill="#000000" opacity="0.12"></path>
                <path d="M32,21.3 L27,24.13 L27.09,24.22 L32,21.44 C32.5903954,21.1903582 32.9970603,20.6379078 33.06,20 C32.9332082,20.5771002 32.5397617,21.059629 32,21.3 Z" id="Shape" fill="#000000" opacity="0.12"></path>
                <path d="M12.51,7.62 L32,18.7 C32.5397617,18.940371 32.9332082,19.4228998 33.06,20 C32.9970603,19.3620922 32.5903954,18.8096418 32,18.56 L12.51,7.48 C11.12,6.68 9.97,7.34 9.97,8.94 L9.97,9.09 C10,7.49 11.12,6.83 12.51,7.62 Z" id="Shape" fill="#FFFFFF" opacity="0.25"></path>
                <path d="M41.28,13 L41.28,7 L43.11,7 C43.9325538,6.96023961 44.7352851,7.26035985 45.33,7.83 C45.8868943,8.41249455 46.1860204,9.19454728 46.16,10 C46.1860204,10.8054527 45.8868943,11.5875055 45.33,12.17 C44.7352851,12.7396401 43.9325538,13.0397604 43.11,13 L41.28,13 Z M42.05,12.26 L43.11,12.26 C43.7248478,12.3159702 44.3327863,12.0959078 44.769347,11.659347 C45.2059078,11.2227863 45.4259702,10.6148478 45.37,10 C45.4223471,9.38605286 45.2011103,8.78029239 44.7654089,8.34459105 C44.3297076,7.90888972 43.7239471,7.68765293 43.11,7.74 L42.05,7.74 L42.05,12.26 Z" id="Shape" stroke="#FFFFFF" stroke-width="0.2" fill="#FFFFFF"></path>
                <polygon id="Shape" stroke="#FFFFFF" stroke-width="0.2" fill="#FFFFFF" points="47.24 13 47.24 7 48 7 48 13"></polygon>
                <path d="M51.07,13.13 C50.6137703,13.1226176 50.1706755,12.9760823 49.8,12.71 C49.3858545,12.4269838 49.0931783,11.9986772 48.98,11.51 L49.68,11.22 C49.7657973,11.5455437 49.9468689,11.838044 50.2,12.06 C50.4388676,12.2755818 50.7482533,12.3964911 51.07,12.4 C51.3790243,12.4103781 51.6823607,12.3151446 51.93,12.13 C52.163069,11.9700732 52.2987261,11.7025272 52.29,11.42 C52.3062097,11.1164961 52.1714756,10.8245722 51.93,10.64 C51.5877542,10.4086698 51.2091856,10.2362858 50.81,10.13 C50.3600011,10.0144641 49.9447773,9.79140999 49.6,9.48 C49.3300441,9.21830335 49.1814519,8.85588332 49.19,8.48 C49.1904053,8.04769437 49.3760811,7.63629505 49.7,7.35 C50.4435378,6.75776456 51.4868549,6.72122816 52.27,7.26 C52.5579885,7.46542176 52.7747223,7.75556539 52.89,8.09 L52.19,8.38 C52.1236068,8.1724756 51.9942988,7.99074542 51.82,7.86 C51.6021192,7.68609189 51.3284843,7.59724938 51.05,7.61 C50.7757673,7.60553621 50.5080301,7.69360765 50.29,7.86 C50.0929473,8.00476582 49.9775811,8.23549837 49.98,8.48 C49.9772829,8.70333542 50.0860349,8.91333931 50.27,9.04 C50.526121,9.22940312 50.8139576,9.37162825 51.12,9.46 C51.3717704,9.53534319 51.6188678,9.62550037 51.86,9.73 C52.0726335,9.82756409 52.2738512,9.94829475 52.46,10.09 C52.6575531,10.2312936 52.8158627,10.4205769 52.92,10.64 C53.0324325,10.8807499 53.0872145,11.1443884 53.08,11.41 C53.0845267,11.6807906 53.02273,11.9485763 52.9,12.19 C52.7900019,12.4088963 52.6244903,12.5950968 52.42,12.73 C52.2246221,12.8669021 52.008542,12.9715659 51.78,13.04 C51.5490434,13.1047342 51.3098038,13.1350603 51.07,13.13 Z" id="Shape" stroke="#FFFFFF" stroke-width="0.2" fill="#FFFFFF"></path>
                <path d="M55,13 L54.23,13 L54.23,7 L56.23,7 C56.7196295,6.99159534 57.1932151,7.17457158 57.55,7.51 C57.9072856,7.83766744 58.1106947,8.30021245 58.1106947,8.785 C58.1106947,9.26978755 57.9072856,9.73233256 57.55,10.06 C57.1932151,10.3954284 56.7196295,10.5784047 56.23,10.57 L55,10.57 L55,13 Z M55,9.83 L56.3,9.83 C56.5910166,9.84053623 56.8721697,9.72369336 57.07,9.51 C57.2687308,9.32120604 57.3812511,9.05911147 57.3812511,8.785 C57.3812511,8.51088853 57.2687308,8.24879396 57.07,8.06 C56.8721697,7.84630664 56.5910166,7.72946377 56.3,7.74 L55,7.74 L55,9.83 Z" id="Shape" stroke="#FFFFFF" stroke-width="0.2" fill="#FFFFFF"></path>
                <path d="M64,12.22 C63.416689,12.8037876 62.6252634,13.1317962 61.8,13.1317962 C60.9747366,13.1317962 60.183311,12.8037876 59.6,12.22 C58.4265537,10.9725973 58.4265537,9.02740265 59.6,7.78 C60.183311,7.19621238 60.9747366,6.86820381 61.8,6.86820381 C62.6252634,6.86820381 63.416689,7.19621238 64,7.78 C64.5762915,8.37318343 64.8898145,9.17320747 64.87,10 C64.8991575,10.8284152 64.5842493,11.631974 64,12.22 Z M60.17,11.72 C60.5959063,12.1623416 61.1860051,12.4085178 61.8,12.4 C62.4146969,12.4121841 63.0062054,12.1654199 63.43,11.72 C64.3246528,10.7478399 64.3246528,9.25216008 63.43,8.28 C63.0062054,7.83458015 62.4146969,7.58781586 61.8,7.6 C61.1860051,7.59148218 60.5959063,7.8376584 60.17,8.28 C59.2894415,9.25761507 59.2894415,10.7423849 60.17,11.72 Z" id="Shape" stroke="#FFFFFF" stroke-width="0.2" fill="#FFFFFF"></path>
                <polygon id="Shape" stroke="#FFFFFF" stroke-width="0.2" fill="#FFFFFF" points="66 13 66 7 66.94 7 69.85 11.67 69.85 11.67 69.85 10.51 69.85 7 70.63 7 70.63 13 69.82 13 66.82 8.11 66.82 8.11 66.82 9.26 66.82 13"></polygon>
                <polygon id="Shape" stroke="#FFFFFF" stroke-width="0.2" fill="#FFFFFF" points="72 13 72 7 72.77 7 72.77 13"></polygon>
                <path d="M74.09,13 L74.09,7 L76.26,7 C76.7098624,6.99548441 77.1451082,7.15959349 77.48,7.46 C77.8182813,7.75357474 78.0087722,8.18217927 78,8.63 C78.0024176,8.89937608 77.9259405,9.16356966 77.78,9.39 C77.6323852,9.60470984 77.4281632,9.77431794 77.19,9.88 C77.4786908,9.97871957 77.7323624,10.1594172 77.92,10.4 C78.103817,10.6450678 78.2021779,10.9436633 78.2,11.25 C78.2103361,11.7167258 78.0124315,12.1638434 77.66,12.47 C77.3129161,12.7929757 76.8540315,12.9686424 76.38,12.96 L74.09,13 Z M74.86,9.57 L76.26,9.57 C76.5253845,9.58535216 76.7832249,9.47853254 76.96,9.28 C77.1295728,9.11383259 77.2266187,8.88739234 77.23,8.65 C77.2394493,8.41186694 77.1571187,8.17919359 77,8 C76.8297783,7.8111661 76.5839686,7.70843964 76.33,7.72 L74.86,7.72 L74.86,9.57 Z M74.86,12.26 L76.42,12.26 C76.6942187,12.2691998 76.9582331,12.1555269 77.14,11.95 C77.3126652,11.7655769 77.4091275,11.5226349 77.41,11.27 C77.4039154,11.0194718 77.303988,10.7803596 77.13,10.6 C76.9350507,10.3953089 76.6625778,10.2826868 76.38,10.29 L74.86,10.29 L74.86,12.26 Z" id="Shape" stroke="#FFFFFF" stroke-width="0.2" fill="#FFFFFF"></path>
                <polygon id="Shape" stroke="#FFFFFF" stroke-width="0.2" fill="#FFFFFF" points="79.24 13 79.24 7 80 7 80 12.26 82.6 12.26 82.6 13"></polygon>
                <polygon id="Shape" stroke="#FFFFFF" stroke-width="0.2" fill="#FFFFFF" points="87.08 7.74 84.35 7.74 84.35 9.64 86.81 9.64 86.81 10.36 84.35 10.36 84.35 12.26 87.08 12.26 87.08 13 83.58 13 83.58 7 87.08 7"></polygon>
                <path d="M91.74,13.13 C91.2808734,13.1215034 90.8349056,12.9751702 90.46,12.71 C90.0496149,12.4251913 89.7606661,11.997119 89.65,11.51 L90.35,11.22 C90.4357973,11.5455437 90.6168689,11.838044 90.87,12.06 C91.1088676,12.2755818 91.4182533,12.3964911 91.74,12.4 C92.0488073,12.4087987 92.3516361,12.3137245 92.6,12.13 C92.833069,11.9700732 92.9687261,11.7025272 92.96,11.42 C92.9762097,11.1164961 92.8414756,10.8245722 92.6,10.64 C92.2539685,10.4089683 91.8721678,10.2366512 91.47,10.13 C91.0229645,10.0144693 90.610986,9.79131427 90.27,9.48 C89.9957896,9.22120376 89.8463858,8.85680431 89.86,8.48 C89.8604053,8.04769437 90.0460811,7.63629505 90.37,7.35 C91.1135378,6.75776456 92.1568549,6.72122816 92.94,7.26 C93.2279885,7.46542176 93.4447223,7.75556539 93.56,8.09 L92.86,8.38 C92.7941443,8.16950367 92.6605457,7.98668443 92.48,7.86 C92.2665508,7.68509132 91.9956022,7.59596349 91.72,7.61 C91.4457673,7.60553621 91.1780301,7.69360765 90.96,7.86 C90.760449,8.00371076 90.6415428,8.23409148 90.64,8.48 C90.6423451,8.70210463 90.7499613,8.90991528 90.93,9.04 C91.1885611,9.22537048 91.4756783,9.36724015 91.78,9.46 C92.0355242,9.53384549 92.2860402,9.62403123 92.53,9.73 C92.7414289,9.82983301 92.9424161,9.95042529 93.13,10.09 C93.3275531,10.2312936 93.4858627,10.4205769 93.59,10.64 C93.697606,10.8823287 93.7521586,11.144863 93.75,11.41 C93.7545267,11.6807906 93.69273,11.9485763 93.57,12.19 C93.4600019,12.4088963 93.2944903,12.5950968 93.09,12.73 C92.8946221,12.8669021 92.678542,12.9715659 92.45,13.04 C92.2190434,13.1047342 91.9798038,13.1350603 91.74,13.13 Z" id="Shape" stroke="#FFFFFF" stroke-width="0.2" fill="#FFFFFF"></path>
                <path d="M96.94,13.13 C96.3346966,13.1557196 95.7477785,12.9187651 95.33,12.48 C94.9105977,12.0118655 94.6915756,11.3978855 94.72,10.77 L94.72,7 L95.49,7 L95.49,10.8 C95.4696069,11.2186082 95.60099,11.6305118 95.86,11.96 C96.1348176,12.2626139 96.5319509,12.4244089 96.94,12.4 C97.335498,12.4327891 97.724761,12.2858974 98,12 C98.2625891,11.6719077 98.3975677,11.2598678 98.38,10.84 L98.38,7 L99.15,7 L99.15,10.77 C99.1800847,11.396352 98.9648517,12.0097661 98.55,12.48 C98.1345251,12.9221436 97.5459911,13.1597505 96.94,13.13 Z" id="Shape" stroke="#FFFFFF" stroke-width="0.2" fill="#FFFFFF"></path>
                <path d="M100.4,13 L100.4,7 L102.4,7 C102.88963,6.99159534 103.363215,7.17457158 103.72,7.51 C104.088162,7.8318405 104.293499,8.3011826 104.28,8.79 C104.279786,9.19700236 104.134409,9.59058302 103.87,9.9 C103.614539,10.2078321 103.261833,10.4194555 102.87,10.5 L104.55,13 L103.64,13 L102,10.57 L101.15,10.57 L101.15,13 L100.4,13 Z M101.17,9.85 L102.41,9.85 C102.702222,9.85593268 102.985375,9.74840606 103.2,9.55 C103.414713,9.35629679 103.535061,9.07913108 103.53,8.79 C103.527417,8.51908189 103.424032,8.25883571 103.24,8.06 C103.039869,7.84358825 102.754455,7.72649523 102.46,7.74 L101.17,7.74 L101.17,9.85 Z" id="Shape" stroke="#FFFFFF" stroke-width="0.2" fill="#FFFFFF"></path>
            </g>
        </g>
    </g>
</svg>